<?xml version="1.0" encoding="UTF-8"?>
<svg id="Layer_1" data-name="Layer 1" xmlns="http://www.w3.org/2000/svg" viewBox="0 0 500 500">
  <defs>
    <style>
      .cls-1 {
        fill: #fff;
      }
    </style>
  </defs>
  <path class="cls-1" d="M243.57,301c-14.32,0-25.92,11.61-25.92,25.92s11.61,25.92,25.92,25.92,25.92-11.61,25.92-25.92-11.61-25.92-25.92-25.92Z"/>
  <path class="cls-1" d="M310.05,260.54c-15.41,0-27.89,12.48-27.89,27.89s12.48,27.89,27.89,27.89,27.89-12.48,27.89-27.89-12.48-27.89-27.89-27.89Z"/>
  <path class="cls-1" d="M310.05,183.59c-15.41,0-27.89,12.48-27.89,27.89s12.48,27.89,27.89,27.89,27.89-12.48,27.89-27.89-12.48-27.89-27.89-27.89Z"/>
  <path class="cls-1" d="M243.57,147.11c-14.3,0-25.92,11.62-25.92,25.92s11.62,25.92,25.92,25.92,25.92-11.62,25.92-25.92-11.62-25.92-25.92-25.92Z"/>
  <path class="cls-1" d="M177.08,233.8c12.34,0,22.32-9.98,22.32-22.32s-9.99-22.32-22.32-22.32-22.32,9.98-22.32,22.32,9.99,22.32,22.32,22.32Z"/>
  <path class="cls-1" d="M177.08,310.75c12.34,0,22.32-9.98,22.32-22.32s-9.99-22.32-22.32-22.32-22.32,9.98-22.32,22.32,9.99,22.32,22.32,22.32Z"/>
  <path class="cls-1" d="M110.89,265.1c8.35,0,15.12-6.77,15.12-15.12s-6.77-15.12-15.12-15.12-15.12,6.77-15.12,15.12,6.77,15.12,15.12,15.12Z"/>
  <circle class="cls-1" cx="177.08" cy="364.89" r="23.9"/>
  <path class="cls-1" d="M310.05,338.97c-14.3,0-25.92,11.62-25.92,25.92s11.62,25.92,25.92,25.92,25.92-11.62,25.92-25.92-11.62-25.92-25.92-25.92Z"/>
  <path class="cls-1" d="M376.25,220.07c-16.52,0-29.91,13.39-29.91,29.9s13.39,29.91,29.91,29.91,29.91-13.39,29.91-29.91-13.39-29.9-29.91-29.9Z"/>
  <path class="cls-1" d="M310.05,161.03c14.3,0,25.92-11.62,25.92-25.92s-11.62-25.92-25.92-25.92-25.92,11.62-25.92,25.92,11.62,25.92,25.92,25.92Z"/>
  <circle class="cls-1" cx="177.08" cy="135.11" r="23.91"/>
  <path class="cls-1" d="M243.57,117.15c10.26,0,18.58-8.32,18.58-18.58s-8.32-18.58-18.58-18.58-18.58,8.32-18.58,18.58,8.32,18.58,18.58,18.58Z"/>
  <path class="cls-1" d="M112.43,155.7c-10.27,0-18.58,8.3-18.58,18.58s8.3,18.58,18.58,18.58,18.58-8.3,18.58-18.58-8.3-18.58-18.58-18.58Z"/>
  <path class="cls-1" d="M112.43,307.1c-10.27,0-18.58,8.3-18.58,18.58s8.3,18.58,18.58,18.58,18.58-8.3,18.58-18.58-8.3-18.58-18.58-18.58Z"/>
  <path class="cls-1" d="M243.57,382.85c-10.27,0-18.58,8.3-18.58,18.58s8.3,18.58,18.58,18.58,18.58-8.3,18.58-18.58-8.3-18.58-18.58-18.58Z"/>
  <path class="cls-1" d="M374.66,307.1c-10.27,0-18.58,8.3-18.58,18.58s8.3,18.58,18.58,18.58,18.58-8.3,18.58-18.58-8.3-18.58-18.58-18.58Z"/>
  <path class="cls-1" d="M374.66,192.85c10.27,0,18.58-8.3,18.58-18.58s-8.3-18.58-18.58-18.58-18.58,8.3-18.58,18.58,8.3,18.58,18.58,18.58Z"/>
</svg>